<svg xmlns="http://www.w3.org/2000/svg" width="64" height="64" viewBox="0 0 256 257" fill="none">
  <defs>
    <linearGradient id="a" x1="-.828%" x2="57.636%" y1="7.652%" y2="78.411%">
      <stop offset="0%" stop-color="#41D1FF"/>
      <stop offset="100%" stop-color="#BD34FE"/>
    </linearGradient>
    <linearGradient id="b" x1="43.376%" x2="50.316%" y1="2.242%" y2="89.03%">
      <stop offset="0%" stop-color="#FFEA83"/>
      <stop offset="8.333%" stop-color="#FFDD35"/>
      <stop offset="100%" stop-color="#FFA800"/>
    </linearGradient>
  </defs>
  <path fill="url(#a)" d="M255.153 37.938 134.897 252.976c-2.483 4.329-8.862 4.382-11.425.098L.875 37.958c-2.91-4.8 1.004-10.813 6.455-9.753l120.565 23.281a6.537 6.537 0 0 0 2.403-.004l117.417-23.231c5.43-1.074 9.362 4.864 6.486 9.68Z"/>
  <path fill="url(#b)" d="m185.432.063-66.495 12.888a3.268 3.268 0 0 0-2.634 3.014l-5.474 92.27a3.268 3.268 0 0 0 3.997 3.378l18.534-4.243c2.318-.53 4.413 1.507 3.936 3.84l-5.502 27.298c-.495 2.455 1.782 4.57 4.199 3.947l11.433-2.886c2.424-.611 4.704 1.503 4.2 3.963l-8.753 42.422c-.732 3.545 3.979 5.473 5.943 2.437l1.313-2.028 54.233-107.944a3.268 3.268 0 0 0-3.641-4.608l-19.106 3.14c-2.47.406-4.435-1.952-3.759-4.364l12.458-44.957c.676-2.437-1.343-4.759-3.828-4.296l-19.815 3.64c-2.485.456-4.507-1.86-3.815-4.307l12.173-43.353c.692-2.464-1.53-4.792-4.014-4.306Z"/>
</svg>

